<?xml version="1.0" standalone="no"?>
<!DOCTYPE svg PUBLIC "-//W3C//DTD SVG 20010904//EN"
 "http://www.w3.org/TR/2001/REC-SVG-20010904/DTD/svg10.dtd">
<svg version="1.0" xmlns="http://www.w3.org/2000/svg"
 width="500.000000pt" height="333.000000pt" viewBox="0 0 500.000000 333.000000"
 preserveAspectRatio="xMidYMid meet">
<metadata>
Created by potrace 1.16, written by Peter Selinger 2001-2019
</metadata>
<g transform="translate(0.000000,333.000000) scale(0.100000,-0.100000)"
fill="#000000" stroke="none">
<path d="M2330 2764 c-449 -80 -792 -391 -907 -822 -24 -87 -26 -115 -27 -277
0 -163 3 -189 26 -277 106 -390 410 -697 792 -797 566 -148 1150 165 1338 719
131 387 36 821 -246 1118 -38 40 -99 96 -135 123 -86 65 -262 152 -376 185
-80 24 -110 27 -265 30 -96 1 -186 0 -200 -2z m425 -169 c115 -33 194 -70 286
-133 79 -53 206 -178 256 -252 126 -186 188 -429 164 -638 -29 -243 -108 -409
-281 -583 -142 -144 -268 -216 -460 -265 -114 -29 -346 -27 -459 4 -169 46
-320 133 -440 253 -257 257 -350 625 -244 964 53 170 132 294 270 425 104 99
204 159 341 206 134 46 186 54 342 49 109 -2 152 -8 225 -30z"/>
<path d="M1980 1666 l0 -516 120 0 120 0 2 246 3 245 133 -121 c96 -88 137
-120 150 -115 9 3 51 38 93 78 l77 72 -341 310 c-187 171 -344 312 -349 313
-4 2 -8 -228 -8 -512z"/>
<path d="M2802 1993 c-191 -176 -201 -187 -186 -204 19 -21 9 -29 189 135 208
189 215 197 215 228 0 15 -3 28 -7 27 -5 0 -99 -84 -211 -186z"/>
<path d="M2955 2003 c-105 -98 -182 -170 -232 -214 -51 -45 -52 -47 -33 -64
18 -17 24 -12 174 125 131 120 156 148 156 172 0 15 -3 28 -7 28 -5 0 -30 -21
-58 -47z"/>
<path d="M2871 1798 c-130 -118 -133 -122 -113 -136 22 -14 22 -20 22 -263 l0
-249 25 0 25 0 0 275 c0 264 1 275 20 285 20 11 20 8 20 -275 l0 -285 25 0 25
0 0 313 c0 291 1 315 18 330 10 10 22 17 25 17 4 0 7 -148 7 -330 l0 -330 25
0 25 0 0 385 c0 212 -3 385 -7 385 -5 0 -68 -55 -142 -122z"/>
</g>
</svg>
